<svg width="94" height="94" viewBox="0 0 94 94" fill="none" xmlns="http://www.w3.org/2000/svg">
<g clip-path="url(#clip0_402_2)">
<path d="M59.4215 65.2801C57.8676 65.8845 54.7341 67.1013 51.2314 67.1013C49.0187 67.1013 46.6611 66.6154 44.4583 65.1833C40.2333 62.4358 38.1634 56.8992 39.3065 51.4041C40.144 47.3805 42.3547 44.1846 44.1309 41.6148L50.136 32.9317C50.65 32.189 49.8482 31.2488 49.0286 31.632L0.90033 54.1339C2.77767 67.0381 9.97548 78.2278 20.2136 85.4236C18.614 74.5598 19.2868 63.372 22.458 52.8322C23.3848 49.7488 26.6473 47.9968 29.7452 48.9212C32.843 49.8437 34.6012 53.0909 33.6745 56.1743C30.5588 66.5304 30.2393 77.8367 32.7517 88.8664C32.9839 89.8876 33.2399 90.9029 33.5177 91.9063C37.8261 93.2099 42.3964 93.9151 47.1334 93.9151C72.3684 93.9151 92.9279 74.0008 93.819 49.099C92.1143 49.9523 90.4016 50.8155 88.6791 51.6866C79.2566 56.4409 69.5127 61.3593 59.4255 65.2801H59.4215Z" fill="#EC3A94" style="fill:#EC3A94;fill:color(display-p3 0.9255 0.2275 0.5804);fill-opacity:1;"/>
<path d="M53.9006 17.9751C58.7964 17.8705 63.075 20.6279 64.5514 24.8292C66.3712 30.0103 63.2476 34.5256 61.914 36.4535L53.7736 48.2219C52.4717 50.1023 51.1262 52.048 50.771 53.7644C50.771 53.7723 50.7671 53.7802 50.7671 53.7881C50.5805 54.7165 51.4358 55.5145 52.3646 55.313C53.0155 55.1708 53.9185 54.9061 55.1627 54.4222C64.7221 50.7068 74.2081 45.9188 83.3805 41.2908C86.4287 39.7521 89.4987 38.2035 92.5965 36.6806C87.7285 16.1757 69.221 0.915039 47.1314 0.915039C23.4126 0.915039 3.82352 18.5085 0.815002 41.2987L45.6391 20.3415C47.7129 19.3716 50.5527 18.0443 53.9026 17.9751H53.9006Z" fill="#00B6DA" style="fill:#00B6DA;fill:color(display-p3 0.0000 0.7137 0.8549);fill-opacity:1;"/>
</g>
<defs>
<clipPath id="clip0_402_2">
<rect width="93" height="93" fill="white" style="fill:white;fill-opacity:1;" transform="translate(0.815002 0.915039)"/>
</clipPath>
</defs>
</svg>
